<?xml version="1.0" encoding="UTF-8" standalone="no"?>
<!-- Created with Inkscape (http://www.inkscape.org/) -->

<svg
   xmlns:dc="http://purl.org/dc/elements/1.1/"
   xmlns:cc="http://creativecommons.org/ns#"
   xmlns:rdf="http://www.w3.org/1999/02/22-rdf-syntax-ns#"
   xmlns:svg="http://www.w3.org/2000/svg"
   xmlns="http://www.w3.org/2000/svg"
   xmlns:sodipodi="http://sodipodi.sourceforge.net/DTD/sodipodi-0.dtd"
   xmlns:inkscape="http://www.inkscape.org/namespaces/inkscape"
   id="svg2"
   version="1.1"
   inkscape:version="0.48.4 r9939"
   width="744.09448"
   height="1052.3622"
   xml:space="preserve"
   sodipodi:docname="flask-908887.ai.svg"><metadata
     id="metadata8"><rdf:RDF><cc:Work
         rdf:about=""><dc:format>image/svg+xml</dc:format><dc:type
           rdf:resource="http://purl.org/dc/dcmitype/StillImage" /><dc:title></dc:title></cc:Work></rdf:RDF></metadata><defs
     id="defs6"><clipPath
       clipPathUnits="userSpaceOnUse"
       id="clipPath16"><path
         d="m 0,431.484 376.723,0 L 376.723,0 0,0 0,431.484 z"
         id="path18"
         inkscape:connector-curvature="0" /></clipPath><clipPath
       clipPathUnits="userSpaceOnUse"
       id="clipPath28"><path
         d="m 0,431.484 376.723,0 L 376.723,0 0,0 0,431.484 z"
         id="path30"
         inkscape:connector-curvature="0" /></clipPath><clipPath
       clipPathUnits="userSpaceOnUse"
       id="clipPath40"><path
         d="m 0,431.484 376.723,0 L 376.723,0 0,0 0,431.484 z"
         id="path42"
         inkscape:connector-curvature="0" /></clipPath><clipPath
       clipPathUnits="userSpaceOnUse"
       id="clipPath52"><path
         d="m 0,431.484 376.723,0 L 376.723,0 0,0 0,431.484 z"
         id="path54"
         inkscape:connector-curvature="0" /></clipPath><clipPath
       clipPathUnits="userSpaceOnUse"
       id="clipPath64"><path
         d="m 0,431.484 376.723,0 L 376.723,0 0,0 0,431.484 z"
         id="path66"
         inkscape:connector-curvature="0" /></clipPath><clipPath
       clipPathUnits="userSpaceOnUse"
       id="clipPath76"><path
         d="m 0,431.484 376.723,0 L 376.723,0 0,0 0,431.484 z"
         id="path78"
         inkscape:connector-curvature="0" /></clipPath></defs><sodipodi:namedview
     pagecolor="#ffffff"
     bordercolor="#666666"
     borderopacity="1"
     objecttolerance="10"
     gridtolerance="10"
     guidetolerance="10"
     inkscape:pageopacity="0"
     inkscape:pageshadow="2"
     inkscape:window-width="1551"
     inkscape:window-height="876"
     id="namedview4"
     showgrid="false"
     inkscape:zoom="0.64846347"
     inkscape:cx="524.25712"
     inkscape:cy="600.44082"
     inkscape:window-x="49"
     inkscape:window-y="24"
     inkscape:window-maximized="1"
     inkscape:current-layer="layer1" /><g
     id="g10"
     inkscape:groupmode="layer"
     inkscape:label="flask-908887"
     transform="matrix(1.25,0,0,-1.25,0,1052.3622)"
     style="display:none"><path
       style="fill:none;stroke:#c3c3c3;stroke-opacity:1"
       d="m 232.775,689.31476 c -2.75,0 -5.214,-1.654 -6.25,-4.2 -1.035,-2.547 -0.445,-5.483 1.525,-7.4 l 16.95,-16.475 0.1,-136.325 -117,-184.325 c -15.347,-21.843 -19.308,-42.594 -11.15,-58.4 8.047,-15.597 26.872,-24.24 53.025,-24.35 l 262.375,0 0.025,0 c 26.123,0.11 44.951,8.753 53,24.35 8.158,15.806 4.197,36.557 -11.15,58.4 l -117,184.325 0.1,136.325 16.925,16.475 c 1.973,1.917 2.585,4.853 1.55,7.4 -1.035,2.546 -3.502,4.2 -6.25,4.2 l -136.775,0 z"
       id="path22"
       inkscape:connector-curvature="0" /><g
       id="g4447"><g
         transform="translate(-403.88677,257.84028)"
         id="g3498"><g
           id="g3500"
           clip-path="url(#clipPath16)"><g
             id="g3502"
             transform="translate(369.022,26.1914)"><path
               d="m 0,0 c 7.439,14.416 3.578,33.681 -10.871,54.248 l -0.104,0.155 -117.632,185.328 0.097,139.156 18.158,17.673 c 0.811,0.787 1.059,1.969 0.633,3.013 -0.424,1.045 -1.426,1.719 -2.552,1.719 l -136.777,0 c -1.127,0 -2.131,-0.674 -2.555,-1.719 -0.424,-1.044 -0.176,-2.227 0.631,-3.012 l 18.16,-17.674 0.098,-139.156 -0.625,-0.982 L -350.451,54.248 C -364.9,33.682 -368.761,14.416 -361.32,0 c 7.33,-14.207 24.903,-22.088 49.479,-22.191 l 262.376,0 0.029,-4 -0.017,4 C -24.895,-22.088 -7.332,-14.207 0,0"
               style="fill:#efeeef;fill-opacity:1;fill-rule:nonzero;stroke:none"
               id="path3504"
               inkscape:connector-curvature="0" /></g></g></g><g
         transform="translate(-403.88677,257.84028)"
         id="g3506"><g
           id="g3508"
           clip-path="url(#clipPath28)"><g
             id="g3510"
             transform="translate(18.5713,80.4395)"><path
               d="m 0,0 c -14.45,-20.566 -18.31,-39.832 -10.87,-54.248 7.33,-14.207 24.903,-22.088 49.479,-22.191 l 262.377,0 0.029,-4 -0.017,4 c 24.558,0.103 42.121,7.984 49.453,22.191 7.439,14.416 3.578,33.681 -10.871,54.248 l -0.104,0.155 -89.592,141.151 -160.191,0 L 0,0 z"
               style="fill:#9fcf7e;fill-opacity:1;fill-rule:nonzero;stroke:none"
               id="path3512"
               inkscape:connector-curvature="0" /></g></g></g><g
         transform="translate(-403.88677,257.84028)"
         id="g3514"><g
           id="g3516"
           clip-path="url(#clipPath40)"><g
             id="g3518"
             transform="translate(206.2524,343.0791)"><path
               d="m 0,0 c 0,-8.284 -6.717,-15 -15,-15 -8.285,0 -15,6.716 -15,15 0,8.284 6.715,15 15,15 C -6.717,15 0,8.284 0,0"
               style="fill:#9fcf7e;fill-opacity:1;fill-rule:nonzero;stroke:none"
               id="path3520"
               inkscape:connector-curvature="0" /></g></g></g><g
         transform="translate(-403.88677,257.84028)"
         id="g3522"><g
           id="g3524"
           clip-path="url(#clipPath52)"><g
             id="g3526"
             transform="translate(179.585,305.7456)"><path
               d="m 0,0 c 0,-4.971 -4.029,-9 -9,-9 -4.971,0 -9,4.029 -9,9 0,4.971 4.029,9 9,9 4.971,0 9,-4.029 9,-9"
               style="fill:#9fcf7e;fill-opacity:1;fill-rule:nonzero;stroke:none"
               id="path3528"
               inkscape:connector-curvature="0" /></g></g></g><g
         transform="translate(-403.88677,257.84028)"
         id="g3530"><g
           id="g3532"
           clip-path="url(#clipPath64)"><g
             id="g3534"
             transform="translate(215.4185,257.7461)"><path
               d="m 0,0 c 0,-9.849 -7.984,-17.833 -17.834,-17.833 -9.847,0 -17.832,7.984 -17.832,17.833 0,9.849 7.985,17.833 17.832,17.833 C -7.984,17.833 0,9.849 0,0"
               style="fill:#9fcf7e;fill-opacity:1;fill-rule:nonzero;stroke:none"
               id="path3536"
               inkscape:connector-curvature="0" /></g></g></g><g
         id="g3538"
         transform="translate(-147.13627,689.32418)"><path
           d="m 0,0 -136.777,0 c -2.75,0 -5.224,-1.667 -6.26,-4.213 -1.035,-2.547 -0.423,-5.469 1.547,-7.386 l 16.949,-16.497 0.096,-136.304 -117.008,-184.346 c -15.347,-21.843 -19.309,-42.574 -11.151,-58.38 8.047,-15.597 26.866,-24.248 53.019,-24.358 l 262.392,0 0.029,0 c 26.123,0.11 44.941,8.761 52.99,24.358 8.158,15.806 4.195,36.537 -11.152,58.38 L -12.334,-164.4 -12.238,-28.096 4.711,-11.599 C 6.684,-9.682 7.295,-6.76 6.26,-4.213 5.225,-1.667 2.748,0 0,0 m -12.906,-12 -7.701,-7.497 -3.627,-3.529 -0.004,-5.061 -0.096,-136.305 -0.002,-3.491 1.87,-2.948 117.008,-184.345 0.151,-0.238 0.162,-0.23 c 12.655,-18.011 16.315,-34.34 10.307,-45.98 -5.896,-11.426 -20.946,-17.769 -42.355,-17.86 l -262.36,0 c -21.44,0.095 -36.493,6.437 -42.387,17.861 -6.008,11.64 -2.348,27.969 10.306,45.979 l 0.161,0.23 0.151,0.238 117.009,184.345 1.871,2.948 -0.003,3.491 -0.096,136.305 -0.003,5.061 -3.627,3.529 -7.702,7.497 110.967,0"
           style="fill:#d1d2d3;fill-opacity:1;fill-rule:nonzero;stroke:none"
           id="path3540"
           inkscape:connector-curvature="0" /></g><path
         d="m -182.63477,572.58628 -18,0 0,6 18,0 0,-6 z"
         style="fill:#a6a8ab;fill-opacity:1;fill-rule:nonzero;stroke:none"
         id="path3542"
         inkscape:connector-curvature="0" /><path
         d="m -182.63477,620.58628 -18,0 0,6 18,0 0,-6 z"
         style="fill:#a6a8ab;fill-opacity:1;fill-rule:nonzero;stroke:none"
         id="path3544"
         inkscape:connector-curvature="0" /><path
         d="m -182.63477,545.58628 -30,0 0,12 30,0 0,-12 z"
         style="fill:#a6a8ab;fill-opacity:1;fill-rule:nonzero;stroke:none"
         id="path3546"
         inkscape:connector-curvature="0" /><path
         d="m -182.63477,593.58628 -30,0 0,12 30,0 0,-12 z"
         style="fill:#a6a8ab;fill-opacity:1;fill-rule:nonzero;stroke:none"
         id="path3548"
         inkscape:connector-curvature="0" /><path
         d="m -182.63477,641.58628 -30,0 0,12 30,0 0,-12 z"
         style="fill:#a6a8ab;fill-opacity:1;fill-rule:nonzero;stroke:none"
         id="path3550"
         inkscape:connector-curvature="0" /></g></g><g
     inkscape:groupmode="layer"
     id="layer1"
     inkscape:label="Innen"
     style="display:inline"><path
       style="fill:none;stroke:#c3c3c3;stroke-opacity:1"
       d="M 154.46875,62.78125 39.0625,244.59375 38.875,244.875 l -0.1875,0.28125 c -15.8175,22.5125 -20.41625,42.95 -12.90625,57.5 6.97404,13.51737 24.22751,21.32208 48.78125,22.21875 -24.55404,0.89657 -41.80716,8.70127 -48.78125,22.21875 -7.51,14.55 -2.91125,34.9875 12.90625,57.5 l 0.1875,0.28125 0.1875,0.28125 115.40625,181.8125 176.53125,0 115.40625,-181.8125 0.1875,-0.28125 0.1875,-0.28125 c 15.81875,-22.51375 20.41625,-42.95 12.90625,-57.5 -6.97646,-13.51985 -24.22834,-21.32617 -48.75,-22.21875 24.52135,-0.89268 41.7736,-8.69901 48.75,-22.21875 7.51,-14.55 2.9125,-34.98625 -12.90625,-57.5 l -0.1875,-0.28125 -0.1875,-0.28125 L 331,62.78125 l -176.53125,0 z"
       id="path34"
       inkscape:connector-curvature="0" /><path
       style="fill:none;stroke:#c3c3c3;stroke-opacity:1"
       d="m 625.0037,127.59237 c -10.35625,0 -18.75,8.395 -18.75,18.75 0,10.355 8.39375,18.75 18.75,18.75 10.35375,0 18.75,-8.395 18.75,-18.75 0,-10.355 -8.39625,-18.75 -18.75,-18.75 z m -25.8125,54.1875 c -6.21375,0 -11.25,5.03625 -11.25,11.25 0,6.21375 5.03625,11.25 11.25,11.25 6.21375,0 11.25,-5.03625 11.25,-11.25 0,-6.21375 -5.03625,-11.25 -11.25,-11.25 z m 33.75,48.9375 c -12.30875,0 -22.3125,10.00125 -22.3125,22.3125 0,12.31125 10.00375,22.28125 22.3125,22.28125 12.3125,0 22.28125,-9.97 22.28125,-22.28125 0,-12.31125 -9.96875,-22.3125 -22.28125,-22.3125 z"
       id="path4402"
       inkscape:connector-curvature="0" /><text
       xml:space="preserve"
       style="font-size:36px;font-style:normal;font-variant:normal;font-weight:bold;font-stretch:normal;text-indent:0;text-align:center;text-decoration:none;line-height:125%;letter-spacing:normal;word-spacing:normal;text-transform:none;direction:ltr;block-progression:tb;writing-mode:lr-tb;text-anchor:middle;baseline-shift:baseline;color:#000000;fill:#000000;fill-opacity:1;stroke:#c3c3c3;stroke-width:0.88582677;stroke-linecap:round;stroke-linejoin:round;stroke-miterlimit:4;stroke-opacity:1;stroke-dasharray:none;stroke-dashoffset:0;marker:none;visibility:visible;display:inline;overflow:visible;enable-background:accumulate;font-family:Handlee;-inkscape-font-specification:Handlee Bold"
       x="241.40601"
       y="121.66135"
       id="text4483"
       sodipodi:linespacing="125%"><tspan
         sodipodi:role="line"
         id="tspan4485"
         x="244.12476"
         y="121.66135"
         style="font-size:24px;font-weight:normal;fill:#000000;fill-opacity:1;stroke:none;-inkscape-font-specification:Handlee">Lieber                      </tspan><tspan
         sodipodi:role="line"
         x="244.12476"
         y="151.66135"
         style="font-size:24px;font-weight:normal;fill:#000000;fill-opacity:1;stroke:none;-inkscape-font-specification:Handlee"
         id="tspan4487">hiermit lade ich </tspan><tspan
         sodipodi:role="line"
         x="244.12476"
         y="181.66135"
         style="font-size:24px;font-weight:normal;fill:#000000;fill-opacity:1;stroke:none;-inkscape-font-specification:Handlee"
         id="tspan4489">dich herzlich zu meinem </tspan><tspan
         sodipodi:role="line"
         x="245.03101"
         y="218.65761"
         style="font-size:32px;fill:#000000;fill-opacity:1;stroke:none"
         id="tspan4491">Forschergeburtstag </tspan><tspan
         sodipodi:role="line"
         x="241.40601"
         y="258.65759"
         style="font-size:32px;font-weight:normal;fill:#000000;fill-opacity:1;stroke:none;-inkscape-font-specification:Handlee"
         id="tspan4493">am <tspan
   style="font-weight:bold;-inkscape-font-specification:Handlee Bold"
   id="tspan4523">27.07.2016</tspan></tspan><tspan
         sodipodi:role="line"
         x="241.40601"
         y="298.65759"
         style="font-size:32px;font-weight:normal;fill:#000000;fill-opacity:1;stroke:none;-inkscape-font-specification:Handlee"
         id="tspan4495">von <tspan
   style="font-weight:bold;-inkscape-font-specification:Handlee Bold"
   id="tspan4521">15:00 – 18:30 Uhr</tspan> ein.</tspan><tspan
         sodipodi:role="line"
         x="241.40601"
         y="338.65759"
         style="font-size:32px;fill:#000000;fill-opacity:1;stroke:none"
         id="tspan4509" /><tspan
         sodipodi:role="line"
         x="241.40601"
         y="371.66135"
         style="font-size:24px;font-weight:normal;fill:#000000;fill-opacity:1;stroke:none;-inkscape-font-specification:Handlee"
         id="tspan4511">Bitte komm wettergerecht gekleidet!</tspan><tspan
         sodipodi:role="line"
         x="241.40601"
         y="401.66135"
         style="font-size:24px;font-weight:normal;fill:#000000;fill-opacity:1;stroke:none;-inkscape-font-specification:Handlee"
         id="tspan4517" /><tspan
         sodipodi:role="line"
         x="244.12476"
         y="431.66135"
         style="font-size:24px;font-weight:normal;fill:#000000;fill-opacity:1;stroke:none;-inkscape-font-specification:Handlee"
         id="tspan4515">Geschenkideen findest du in </tspan><tspan
         sodipodi:role="line"
         x="241.40601"
         y="461.66135"
         style="font-size:24px;font-weight:normal;fill:#000000;fill-opacity:1;stroke:none;-inkscape-font-specification:Handlee"
         id="tspan4626">meiner Teddytoys-Kiste.</tspan><tspan
         sodipodi:role="line"
         x="241.40601"
         y="491.66135"
         style="font-size:32px;fill:#000000;fill-opacity:1;stroke:none"
         id="tspan4505" /><tspan
         sodipodi:role="line"
         x="241.40601"
         y="521.66138"
         style="font-size:32px;fill:#000000;fill-opacity:1;stroke:none"
         id="tspan4501" /><tspan
         sodipodi:role="line"
         x="241.40601"
         y="551.66138"
         style="font-size:32px;fill:#000000;fill-opacity:1;stroke:none"
         id="tspan4503" /></text>
<path
       inkscape:connector-curvature="0"
       id="path4548"
       d="m 415.46875,486.78125 -115.40625,181.8125 -0.1875,0.28125 -0.1875,0.28125 c -15.8175,22.5125 -20.41625,42.95 -12.90625,57.5 6.97404,13.51737 24.22751,21.32208 48.78125,22.21875 -24.55404,0.89657 -41.80716,8.70127 -48.78125,22.21875 -7.51,14.55 -2.91125,34.9875 12.90625,57.5 l 0.1875,0.28125 0.1875,0.28125 115.40625,181.81245 176.53125,0 115.40625,-181.81245 0.1875,-0.28125 0.1875,-0.28125 c 15.81875,-22.51375 20.41625,-42.95 12.90625,-57.5 -6.97646,-13.51985 -24.22834,-21.32617 -48.75,-22.21875 24.52135,-0.89268 41.7736,-8.69901 48.75,-22.21875 7.51,-14.55 2.9125,-34.98625 -12.90625,-57.5 l -0.1875,-0.28125 -0.1875,-0.28125 L 592,486.78125 l -176.53125,0 z"
       style="fill:none;stroke:#c3c3c3;stroke-opacity:1" /><path
       inkscape:connector-curvature="0"
       id="path4550"
       d="m 574.1875,291 c -10.35625,0 -18.75,8.395 -18.75,18.75 0,10.355 8.39375,18.75 18.75,18.75 10.35375,0 18.75,-8.395 18.75,-18.75 0,-10.355 -8.39625,-18.75 -18.75,-18.75 z m -25.8125,54.1875 c -6.21375,0 -11.25,5.03625 -11.25,11.25 0,6.21375 5.03625,11.25 11.25,11.25 6.21375,0 11.25,-5.03625 11.25,-11.25 0,-6.21375 -5.03625,-11.25 -11.25,-11.25 z m 33.75,48.9375 c -12.30875,0 -22.3125,10.00125 -22.3125,22.3125 0,12.31125 10.00375,22.28125 22.3125,22.28125 12.3125,0 22.28125,-9.97 22.28125,-22.28125 0,-12.31125 -9.96875,-22.3125 -22.28125,-22.3125 z"
       style="fill:none;stroke:#c3c3c3;stroke-opacity:1" /><text
       sodipodi:linespacing="125%"
       id="text4552"
       y="545.66138"
       x="502.40601"
       style="font-size:36px;font-style:normal;font-variant:normal;font-weight:bold;font-stretch:normal;text-indent:0;text-align:center;text-decoration:none;line-height:125%;letter-spacing:normal;word-spacing:normal;text-transform:none;direction:ltr;block-progression:tb;writing-mode:lr-tb;text-anchor:middle;baseline-shift:baseline;color:#000000;fill:#000000;fill-opacity:1;stroke:#c3c3c3;stroke-width:0.88582677;stroke-linecap:round;stroke-linejoin:round;stroke-miterlimit:4;stroke-opacity:1;stroke-dasharray:none;stroke-dashoffset:0;marker:none;visibility:visible;display:inline;overflow:visible;enable-background:accumulate;font-family:Handlee;-inkscape-font-specification:Handlee Bold"
       xml:space="preserve"><tspan
         style="font-size:24px;font-weight:normal;fill:#000000;fill-opacity:1;stroke:none;-inkscape-font-specification:Handlee"
         y="545.66138"
         x="505.12476"
         id="tspan4554"
         sodipodi:role="line">Lieber                      </tspan><tspan
         id="tspan4556"
         style="font-size:24px;font-weight:normal;fill:#000000;fill-opacity:1;stroke:none;-inkscape-font-specification:Handlee"
         y="575.66138"
         x="505.12476"
         sodipodi:role="line">hiermit lade ich </tspan><tspan
         id="tspan4558"
         style="font-size:24px;font-weight:normal;fill:#000000;fill-opacity:1;stroke:none;-inkscape-font-specification:Handlee"
         y="605.66138"
         x="505.12476"
         sodipodi:role="line">dich herzlich zu meinem </tspan><tspan
         id="tspan4560"
         style="font-size:32px;fill:#000000;fill-opacity:1;stroke:none"
         y="642.65765"
         x="506.03101"
         sodipodi:role="line">Forschergeburtstag </tspan><tspan
         id="tspan4562"
         style="font-size:32px;font-weight:normal;fill:#000000;fill-opacity:1;stroke:none;-inkscape-font-specification:Handlee"
         y="682.65765"
         x="502.40601"
         sodipodi:role="line">am <tspan
   id="tspan4564"
   style="font-weight:bold;-inkscape-font-specification:Handlee Bold">27.07.2016</tspan></tspan><tspan
         id="tspan4566"
         style="font-size:32px;font-weight:normal;fill:#000000;fill-opacity:1;stroke:none;-inkscape-font-specification:Handlee"
         y="722.65765"
         x="502.40601"
         sodipodi:role="line">von <tspan
   id="tspan4568"
   style="font-weight:bold;-inkscape-font-specification:Handlee Bold">15:00 – 18:30 Uhr</tspan> ein.</tspan><tspan
         id="tspan4570"
         style="font-size:32px;fill:#000000;fill-opacity:1;stroke:none"
         y="762.65765"
         x="502.40601"
         sodipodi:role="line" /><tspan
         id="tspan4578"
         style="font-size:24px;font-weight:normal;fill:#000000;fill-opacity:1;stroke:none;-inkscape-font-specification:Handlee"
         y="795.66138"
         x="502.40601"
         sodipodi:role="line">Bitte komm wettergerecht gekleidet!</tspan><tspan
         style="font-size:24px;font-weight:normal;fill:#000000;fill-opacity:1;stroke:none;-inkscape-font-specification:Handlee"
         y="825.66138"
         x="502.40601"
         sodipodi:role="line"
         id="tspan4637"></tspan><tspan
         style="font-size:24px;font-weight:normal;fill:#000000;fill-opacity:1;stroke:none;-inkscape-font-specification:Handlee"
         y="855.66138"
         x="505.12476"
         sodipodi:role="line"
         id="tspan4639">Geschenkideen findest du in </tspan><tspan
         style="font-size:24px;font-weight:normal;fill:#000000;fill-opacity:1;stroke:none;-inkscape-font-specification:Handlee"
         y="885.66138"
         x="502.40601"
         sodipodi:role="line"
         id="tspan4641">meiner Teddytoys-Kiste.</tspan><tspan
         id="tspan4580"
         style="font-size:32px;fill:#000000;fill-opacity:1;stroke:none"
         y="915.66138"
         x="502.40601"
         sodipodi:role="line" /><tspan
         id="tspan4582"
         style="font-size:32px;fill:#000000;fill-opacity:1;stroke:none"
         y="945.66138"
         x="502.40601"
         sodipodi:role="line" /><tspan
         id="tspan4584"
         style="font-size:32px;fill:#000000;fill-opacity:1;stroke:none"
         y="975.66138"
         x="502.40601"
         sodipodi:role="line" /></text>
<text
       xml:space="preserve"
       style="font-size:24px;font-style:normal;font-variant:normal;font-weight:normal;font-stretch:normal;text-indent:0;text-align:center;text-decoration:none;line-height:125%;letter-spacing:normal;word-spacing:normal;text-transform:none;direction:ltr;block-progression:tb;writing-mode:lr-tb;text-anchor:middle;baseline-shift:baseline;color:#000000;fill:#e62d00;fill-opacity:1;fill-rule:nonzero;stroke:none;stroke-width:0.88582677;marker:none;visibility:visible;display:inline;overflow:visible;enable-background:accumulate;font-family:Handlee;-inkscape-font-specification:Handlee"
       x="250.76385"
       y="737.17035"
       id="text4662"
       sodipodi:linespacing="125%"><tspan
         sodipodi:role="line"
         id="tspan4664"></tspan></text>
</g></svg>